<svg width="32" height="32" viewBox="0 0 32 32" fill="none" xmlns="http://www.w3.org/2000/svg">
<g clip-path="url(#clip0_8_216)">
<path d="M16 -0.0339966C7.15903 -0.0339966 -0.0349731 7.158 -0.0349731 16C-0.0349731 24.842 7.15903 32.034 16 32.034C24.841 32.034 32.035 24.842 32.035 16C32.035 7.158 24.841 -0.0339966 16 -0.0339966ZM16 30.966C7.74803 30.966 1.03503 24.252 1.03503 16C1.03503 7.748 7.74803 1.034 16 1.034C24.252 1.034 30.965 7.748 30.965 16C30.965 24.252 24.252 30.966 16 30.966Z" fill="#111827"/>
<path d="M24.7941 11.046C24.905 10.8407 24.9964 10.6254 25.0671 10.403C25.0998 10.2998 25.1005 10.1892 25.069 10.0856C25.0375 9.98209 24.9754 9.89053 24.8908 9.82304C24.8062 9.75555 24.7031 9.7153 24.5951 9.70762C24.4872 9.69994 24.3794 9.72518 24.2861 9.78C23.7737 10.0844 23.219 10.3112 22.6401 10.453C21.9374 9.81878 21.0247 9.46718 20.0781 9.466C19.5638 9.4664 19.0549 9.57064 18.5819 9.77246C18.1089 9.97429 17.6815 10.2696 17.3253 10.6406C16.9692 11.0116 16.6916 11.4507 16.5093 11.9315C16.3269 12.4124 16.2435 12.9251 16.2641 13.439C14.0151 13.1559 11.9615 12.0179 10.5291 10.261C10.4742 10.1944 10.4041 10.1421 10.3247 10.1085C10.2453 10.0748 10.1589 10.0608 10.0729 10.0677C9.98689 10.0746 9.90383 10.1021 9.83075 10.1479C9.75767 10.1938 9.69674 10.2566 9.65313 10.331C9.32515 10.8939 9.14688 11.5315 9.13533 12.1829C9.12378 12.8343 9.27932 13.4778 9.58713 14.052C9.51164 14.0647 9.43911 14.0912 9.37313 14.13C9.29227 14.1816 9.22571 14.2527 9.17957 14.3367C9.13343 14.4208 9.1092 14.5151 9.10913 14.611C9.10913 15.746 9.61413 16.788 10.4281 17.496L10.3931 17.531C10.3317 17.6005 10.2894 17.6849 10.2705 17.7757C10.2515 17.8665 10.2566 17.9607 10.2851 18.049C10.4549 18.5785 10.7383 19.0646 11.1155 19.4731C11.4928 19.8816 11.9548 20.2027 12.4691 20.414C11.4127 20.9293 10.2305 21.1303 9.06313 20.993C8.94313 20.9808 8.82247 21.0087 8.72005 21.0724C8.61762 21.1361 8.53922 21.232 8.49713 21.345C8.45671 21.4589 8.45595 21.5831 8.49497 21.6974C8.534 21.8118 8.61052 21.9096 8.71213 21.975C10.2991 22.9936 12.1454 23.5347 14.0311 23.534C20.2111 23.534 23.9051 18.514 23.9051 13.661L23.9041 13.497C24.5031 13.0294 25.0233 12.469 25.4451 11.837C25.509 11.7415 25.5404 11.6279 25.5347 11.5131C25.529 11.3983 25.4865 11.2884 25.4135 11.1997C25.3404 11.1109 25.2408 11.0481 25.1292 11.0204C25.0177 10.9927 24.9002 11.0017 24.7941 11.046ZM23.0491 12.801C22.9766 12.8532 22.9182 12.9227 22.8794 13.0032C22.8407 13.0838 22.8227 13.1727 22.8271 13.262C22.8331 13.394 22.8361 13.528 22.8361 13.66C22.8361 17.988 19.5431 22.465 14.0321 22.465C13.0492 22.4655 12.0733 22.3005 11.1451 21.977C12.2567 21.764 13.301 21.2873 14.1901 20.587C14.2767 20.5188 14.34 20.4254 14.3716 20.3198C14.4031 20.2142 14.4012 20.1014 14.3662 19.9969C14.3311 19.8924 14.2647 19.8013 14.1759 19.7359C14.0871 19.6706 13.9803 19.6343 13.8701 19.632C13.439 19.6238 13.0157 19.5143 12.6346 19.3125C12.2535 19.1106 11.9252 18.8221 11.6761 18.47C11.9291 18.453 12.1771 18.411 12.4181 18.346C12.5348 18.3148 12.6374 18.245 12.7092 18.1479C12.7811 18.0509 12.8179 17.9324 12.8137 17.8117C12.8096 17.691 12.7646 17.5753 12.6862 17.4835C12.6078 17.3916 12.5006 17.3291 12.3821 17.306C11.8952 17.2069 11.4443 16.9774 11.0777 16.6418C10.7112 16.3062 10.4427 15.8774 10.3011 15.401C10.5671 15.468 10.8401 15.507 11.1131 15.516C11.3481 15.515 11.5661 15.371 11.6391 15.145C11.7121 14.919 11.6261 14.67 11.4271 14.538C10.9566 14.2245 10.5943 13.7734 10.3897 13.2463C10.1852 12.7192 10.1483 12.1418 10.2841 11.593C12.0212 13.3753 14.3667 14.4367 16.8521 14.565C17.0281 14.566 17.1821 14.503 17.2891 14.374C17.3961 14.245 17.4371 14.074 17.3991 13.91C17.2624 13.321 17.3235 12.7033 17.5732 12.1526C17.8228 11.6019 18.247 11.1488 18.7801 10.8634C19.3133 10.5781 19.9255 10.4764 20.5223 10.5741C21.119 10.6719 21.6669 10.9635 22.0811 11.404C22.1432 11.4702 22.2211 11.5196 22.3076 11.5474C22.394 11.5752 22.4861 11.5806 22.5751 11.563C22.7401 11.53 22.9031 11.492 23.0641 11.448C22.9915 11.5023 22.9161 11.5527 22.8381 11.599C22.7344 11.6625 22.6555 11.7595 22.6143 11.8739C22.573 11.9883 22.572 12.1133 22.6114 12.2284C22.6507 12.3434 22.7281 12.4417 22.8308 12.5069C22.9334 12.572 23.0553 12.6003 23.1761 12.587L23.3581 12.564C23.2579 12.6466 23.1548 12.7256 23.0491 12.801Z" fill="#111827"/>
</g>
<defs>
<clipPath id="clip0_8_216">
<rect width="32" height="32" fill="white"/>
</clipPath>
</defs>
</svg>
