<svg width="32" height="32" viewBox="0 0 32 32" fill="none" xmlns="http://www.w3.org/2000/svg">
<path d="M7.5293 11.9651C7.5293 11.3064 7.97998 11.0464 8.53466 11.0117L11.1174 11.029C11.2734 11.029 11.4121 11.133 11.4641 11.2891C12.0534 13.1958 12.7814 14.3745 13.6481 15.7092C13.7001 15.8132 13.7868 15.8652 13.8735 15.8652C13.9428 15.8652 14.0121 15.8305 14.0641 15.7438L14.1161 15.5532L14.1335 12.5544C14.1335 12.1211 13.9255 12.0517 13.4401 11.9824C13.2495 11.9477 13.1281 11.7744 13.1281 11.6011C13.1281 11.5664 13.1281 11.5317 13.1454 11.4971C13.3881 10.7517 14.1508 10.3704 15.2255 10.3704L16.1962 10.353C16.9936 10.353 17.7216 10.6997 17.7216 11.7224V15.6572C17.7909 15.7092 17.8602 15.7438 17.9469 15.7438C18.0856 15.7438 18.2589 15.6572 18.3976 15.4318C19.2989 14.1665 20.3216 12.6584 20.4603 11.8611C20.4603 11.8264 20.4776 11.8091 20.495 11.7744C20.6856 11.3931 21.171 11.133 21.379 11.0637C21.4137 11.0464 21.4657 11.029 21.535 11.029H24.2217L24.3951 11.0464C24.6551 11.0464 24.8458 11.2197 24.9324 11.3757C25.0884 11.6184 25.0538 11.8784 25.0711 11.9824V12.1037C24.8111 13.6811 23.0084 15.4492 22.2457 16.5932C22.1417 16.7319 22.0897 16.8532 22.0897 16.9745C22.0897 17.0785 22.1417 17.1825 22.2284 17.2865L24.7591 20.476C24.8978 20.6666 24.9671 20.892 24.9671 21.0826C24.9671 21.6547 24.4298 21.984 23.9097 22.036L23.6151 22.0533H20.9803C20.9283 22.0533 20.8937 22.0707 20.8417 22.0707C20.547 22.0707 20.3043 21.9147 20.131 21.7413C19.5763 21.0653 19.0389 20.372 18.5016 19.6959C18.3976 19.5573 18.3629 19.5399 18.2589 19.4706C18.1376 19.9733 18.0336 20.4933 17.9122 21.0133L17.8602 21.308C17.7736 21.62 17.5482 21.9493 17.1322 22.036L16.8895 22.0533H15.1908C12.1921 22.0533 9.50535 17.7892 7.61597 12.4678C7.56396 12.3291 7.5293 12.1384 7.5293 11.9651ZM17.9469 16.4545C17.4962 16.4545 16.9936 16.1945 16.9936 15.7092V11.7224C16.9936 11.2544 16.7855 11.081 16.2135 11.081L15.2255 11.1157C14.6708 11.1157 14.3588 11.2024 14.0988 11.3757C14.4975 11.5664 14.8615 11.8264 14.8615 12.5544V15.6052C14.8095 16.2119 14.3068 16.6105 13.8215 16.6105C13.4921 16.6105 13.1974 16.4199 13.0241 16.1078C12.2441 14.9291 11.5854 13.8198 11.0134 12.2251L10.8574 11.7744L8.55199 11.7571C8.23998 11.7571 8.27465 11.7744 8.27465 11.9304C8.27465 12.0344 8.29198 12.1731 8.30932 12.2597L8.67333 13.2304C10.5627 18.1186 12.9374 21.3253 15.1908 21.3253H16.9242C17.1669 21.3253 17.1496 21.0306 17.2016 20.8573L17.5309 19.3319C17.6002 19.1759 17.6522 19.0373 17.7736 18.9159C17.9122 18.7773 18.0682 18.7253 18.2242 18.7253C18.5536 18.7253 18.8656 18.9853 19.0736 19.2279L20.547 21.1C20.6683 21.2907 20.7723 21.3253 20.8417 21.3253H23.7017C23.9791 21.3253 24.2217 21.2387 24.2217 21.0653C24.2217 21.0133 24.2044 20.944 24.1697 20.892L21.6563 17.7546C21.4483 17.4946 21.3617 17.2345 21.3617 16.9745C21.3617 16.6972 21.4657 16.4199 21.639 16.1772C22.367 15.0852 23.9271 13.5251 24.2911 12.2424L24.3431 12.0171C24.3257 11.9304 24.3257 11.8611 24.3084 11.7744H21.587C21.4137 11.8437 21.275 11.9477 21.171 12.0864L21.067 12.4157C20.6683 13.5251 19.5763 15.0505 18.7963 16.1078C18.5363 16.3505 18.2416 16.4545 17.9469 16.4545Z" fill="#111827"/>
<rect x="0.5" y="0.5" width="31" height="31" rx="15.5" stroke="black"/>
</svg>
