<svg width="32" height="32" viewBox="0 0 32 32" fill="none" xmlns="http://www.w3.org/2000/svg">
<path d="M16.0142 12.4734C15.3139 12.4734 14.6293 12.6811 14.047 13.0701C13.4648 13.4592 13.0109 14.0122 12.7429 14.6592C12.4749 15.3062 12.4048 16.0182 12.5414 16.705C12.6781 17.3919 13.0153 18.0228 13.5105 18.518C14.0057 19.0132 14.6366 19.3504 15.3234 19.487C16.0103 19.6237 16.7222 19.5535 17.3693 19.2855C18.0163 19.0175 18.5693 18.5637 18.9583 17.9814C19.3474 17.3991 19.5551 16.7145 19.5551 16.0142C19.5551 15.0751 19.182 14.1745 18.518 13.5105C17.8539 12.8464 16.9533 12.4734 16.0142 12.4734ZM16.0142 18.6314C15.4966 18.6314 14.9906 18.4779 14.5602 18.1903C14.1298 17.9027 13.7944 17.494 13.5963 17.0158C13.3982 16.5375 13.3464 16.0113 13.4474 15.5037C13.5484 14.996 13.7976 14.5296 14.1636 14.1636C14.5296 13.7976 14.996 13.5484 15.5037 13.4474C16.0113 13.3464 16.5375 13.3982 17.0158 13.5963C17.494 13.7944 17.9027 14.1298 18.1903 14.5602C18.4779 14.9906 18.6314 15.4966 18.6314 16.0142C18.6293 16.7077 18.353 17.3722 17.8626 17.8626C17.3722 18.353 16.7077 18.6293 16.0142 18.6314ZM19.4011 8.4707H12.6273C11.5249 8.4707 10.4677 8.90863 9.68815 9.68815C8.90863 10.4677 8.4707 11.5249 8.4707 12.6273V19.4011C8.4707 20.5035 8.90863 21.5608 9.68815 22.3403C10.4677 23.1198 11.5249 23.5578 12.6273 23.5578H19.4011C20.5035 23.5578 21.5608 23.1198 22.3403 22.3403C23.1198 21.5608 23.5578 20.5035 23.5578 19.4011V12.6273C23.5578 11.5249 23.1198 10.4677 22.3403 9.68815C21.5608 8.90863 20.5035 8.4707 19.4011 8.4707ZM22.6341 19.4011C22.6341 20.2586 22.2935 21.0809 21.6872 21.6872C21.0809 22.2935 20.2586 22.6341 19.4011 22.6341H12.6273C11.7699 22.6341 10.9476 22.2935 10.3413 21.6872C9.73501 21.0809 9.3944 20.2586 9.3944 19.4011V12.6273C9.3944 11.7699 9.73501 10.9476 10.3413 10.3413C10.9476 9.73501 11.7699 9.3944 12.6273 9.3944H19.4011C20.2586 9.3944 21.0809 9.73501 21.6872 10.3413C22.2935 10.9476 22.6341 11.7699 22.6341 12.6273V19.4011ZM20.7867 12.0115C20.7867 12.1638 20.7415 12.3126 20.6569 12.4392C20.5724 12.5658 20.4521 12.6644 20.3115 12.7227C20.1708 12.781 20.0161 12.7962 19.8668 12.7665C19.7174 12.7368 19.5803 12.6635 19.4726 12.5558C19.365 12.4482 19.2917 12.311 19.262 12.1617C19.2323 12.0124 19.2475 11.8576 19.3058 11.717C19.364 11.5763 19.4627 11.4561 19.5893 11.3715C19.7159 11.2869 19.8647 11.2418 20.0169 11.2418C20.2211 11.2418 20.4169 11.3229 20.5612 11.4672C20.7056 11.6116 20.7867 11.8074 20.7867 12.0115Z" fill="#111827"/>
<rect x="0.5" y="0.5" width="31" height="31" rx="15.5" stroke="black"/>
</svg>
